<?xml version="1.0" encoding="UTF-8" standalone="no"?>
<!-- Created with Inkscape (http://www.inkscape.org/) -->

<svg
   xmlns:dc="http://purl.org/dc/elements/1.1/"
   xmlns:cc="http://creativecommons.org/ns#"
   xmlns:rdf="http://www.w3.org/1999/02/22-rdf-syntax-ns#"
   xmlns:svg="http://www.w3.org/2000/svg"
   xmlns="http://www.w3.org/2000/svg"
   xmlns:sodipodi="http://sodipodi.sourceforge.net/DTD/sodipodi-0.dtd"
   xmlns:inkscape="http://www.inkscape.org/namespaces/inkscape"
   width="166"
   height="65.199997"
   viewBox="0 0 166 65.199998"
   id="svg3753"
   version="1.1"
   inkscape:version="0.91 r13725"
   sodipodi:docname="novotel.svg">
  <defs
     id="defs3755">
    <clipPath
       id="clipPath3400"
       clipPathUnits="userSpaceOnUse">
      <path
         inkscape:connector-curvature="0"
         id="path3402"
         d="m 826.781,28.346 132.264,0 0,51.692 -132.264,0 0,-51.692 z" />
    </clipPath>
  </defs>
  <sodipodi:namedview
     id="base"
     pagecolor="#ffffff"
     bordercolor="#666666"
     borderopacity="1.0"
     inkscape:pageopacity="0.0"
     inkscape:pageshadow="2"
     inkscape:zoom="5.4518072"
     inkscape:cx="83"
     inkscape:cy="32.599998"
     inkscape:document-units="px"
     inkscape:current-layer="layer1"
     showgrid="false"
     units="px"
     inkscape:window-width="1280"
     inkscape:window-height="744"
     inkscape:window-x="-4"
     inkscape:window-y="-4"
     inkscape:window-maximized="1" />
  <metadata
     id="metadata3758">
    <rdf:RDF>
      <cc:Work
         rdf:about="">
        <dc:format>image/svg+xml</dc:format>
        <dc:type
           rdf:resource="http://purl.org/dc/dcmitype/StillImage" />
        <dc:title></dc:title>
      </cc:Work>
    </rdf:RDF>
  </metadata>
  <g
     inkscape:label="Layer 1"
     inkscape:groupmode="layer"
     id="layer1"
     transform="translate(0,-987.16216)">
    <g
       id="g3396"
       transform="matrix(1.25,0,0,-1.25,-1033.1413,1087.5023)">
      <g
         id="g3398"
         clip-path="url(#clipPath3400)">
        <g
           id="g3404"
           transform="translate(847.093,28.4533)">
          <path
             d="m 0,0 0,2.419 -2.978,0 0,-2.419 -0.584,0 0,5.236 0.584,0 0,-2.259 2.978,0 0,2.259 0.585,0 L 0.585,0 0,0 Z m 6.194,-0.107 c -1.648,0 -2.499,1.302 -2.499,2.739 0,1.435 0.851,2.711 2.499,2.711 1.648,0 2.499,-1.276 2.499,-2.711 0,-1.437 -0.851,-2.739 -2.499,-2.739 m 0,4.891 c -1.223,0 -1.882,-1.036 -1.882,-2.152 0,-1.144 0.659,-2.181 1.882,-2.181 1.223,0 1.882,1.037 1.882,2.181 0,1.089 -0.659,2.152 -1.882,2.152 m 7.257,-0.106 0,-4.678 -0.585,0 0,4.678 -1.913,0 0,0.558 4.386,0 0,-0.558 -1.888,0 z m 19.645,-4.785 c -0.611,0 -1.302,0.16 -1.701,0.346 l 0,0.532 c 0.452,-0.187 1.064,-0.346 1.701,-0.346 0.824,0 1.25,0.425 1.25,0.957 0,1.542 -2.925,0.558 -2.925,2.578 0,0.824 0.612,1.383 1.755,1.383 0.478,0 1.037,-0.107 1.436,-0.266 l 0,-0.531 c -0.426,0.159 -0.958,0.266 -1.356,0.266 -0.824,0 -1.277,-0.293 -1.277,-0.825 0,-1.462 2.952,-0.531 2.952,-2.605 0,-0.877 -0.745,-1.489 -1.835,-1.489 m 45.166,5.343 1.94,0 c 0.877,0 1.648,-0.558 1.648,-1.488 0,-0.877 -0.558,-1.356 -1.223,-1.463 L 82.195,0 l -0.691,0 -1.515,2.18 -1.143,0 0,-2.18 -0.584,0 0,5.236 z m 0.584,-2.498 1.276,0 c 0.638,0 1.143,0.292 1.143,0.983 0,0.665 -0.478,0.957 -1.091,0.957 l -1.328,0 0,-1.94 z m 8.055,1.94 0,-4.678 -0.585,0 0,4.678 -1.887,0 0,0.558 4.359,0 0,-0.558 -1.887,0 z M 72.732,-0.107 c -1.648,0 -2.498,1.302 -2.498,2.739 0,1.435 0.85,2.711 2.498,2.711 1.648,0 2.499,-1.276 2.499,-2.711 0,-1.437 -0.851,-2.739 -2.499,-2.739 m 0,4.891 c -1.223,0 -1.882,-1.036 -1.882,-2.152 0,-1.144 0.659,-2.181 1.882,-2.181 1.222,0 1.882,1.037 1.882,2.181 0,1.089 -0.66,2.152 -1.882,2.152 m -22.383,0.452 1.94,0 c 0.878,0 1.649,-0.558 1.649,-1.488 0,-0.877 -0.559,-1.356 -1.223,-1.463 L 54.283,0 l -0.692,0 -1.514,2.18 -1.143,0 0,-2.18 -0.585,0 0,5.236 z m 0.585,-2.498 1.276,0 c 0.638,0 1.142,0.292 1.142,0.983 0,0.665 -0.478,0.957 -1.09,0.957 l -1.328,0 0,-1.94 z m 14.567,-2.845 c -0.611,0 -1.303,0.16 -1.701,0.346 l 0,0.532 c 0.452,-0.187 1.063,-0.346 1.701,-0.346 0.824,0 1.25,0.425 1.25,0.957 0,1.542 -2.924,0.558 -2.924,2.552 0,0.718 0.505,1.409 1.701,1.409 0.531,0 1.09,-0.107 1.489,-0.266 l 0,-0.558 c -0.426,0.159 -0.958,0.293 -1.463,0.293 -0.771,0 -1.169,-0.373 -1.169,-0.878 0,-1.409 2.951,-0.478 2.951,-2.552 0,-0.877 -0.745,-1.489 -1.835,-1.489 m 27.647,0 c -0.611,0 -1.303,0.16 -1.701,0.346 l 0,0.532 c 0.451,-0.187 1.063,-0.346 1.701,-0.346 0.824,0 1.249,0.425 1.249,0.957 0,1.542 -2.923,0.558 -2.923,2.552 0,0.718 0.504,1.409 1.7,1.409 0.532,0 1.09,-0.107 1.489,-0.266 l 0,-0.558 c -0.425,0.159 -0.957,0.293 -1.462,0.293 -0.771,0 -1.17,-0.373 -1.17,-0.878 0,-1.409 2.952,-0.478 2.952,-2.552 0,-0.877 -0.745,-1.489 -1.835,-1.489 M 44.554,0 45.298,0 42.587,2.711 c -0.586,0.612 -0.763,0.878 -0.763,1.249 0,0.559 0.443,0.852 1.002,0.852 0.346,0 0.691,-0.054 1.063,-0.187 l 0,0.505 c -0.346,0.134 -0.665,0.187 -1.063,0.187 -1.17,0 -1.612,-0.665 -1.612,-1.357 0,-0.398 0.229,-0.877 0.549,-1.196 L 44.554,0 Z M 41.795,3.136 C 41.09,2.878 40.523,2.238 40.523,1.387 c 0,-0.85 0.624,-1.494 1.723,-1.494 1.636,0 2.48,1.374 2.182,2.825 l -0.513,0 c 0.208,-1.409 -0.5,-2.32 -1.597,-2.32 -0.716,0 -1.237,0.33 -1.237,0.989 0,0.585 0.39,1.157 1.06,1.35 L 41.795,3.136 Z M 26.025,1.302 c 0,-0.718 0.266,-0.824 1.197,-0.824 0.344,0 0.717,0.027 1.222,0.08 l 0,-0.531 c -0.398,-0.055 -0.665,-0.107 -1.303,-0.107 -1.223,0 -1.701,0.24 -1.701,1.302 l 0,4.014 0.585,0 0,-3.934 z m 31.421,3.934 3.11,0 0,-0.558 -2.525,0 0,-1.675 2.42,0 0,-0.558 -2.42,0 0,-0.903 c 0,-0.825 0.266,-1.064 1.197,-1.064 0.345,0 0.85,0.027 1.355,0.08 l 0,-0.531 c -0.398,-0.055 -0.798,-0.107 -1.435,-0.107 -1.223,0 -1.702,0.372 -1.702,1.622 l 0,3.694 z m -38.891,0 3.11,0 0,-0.558 -2.525,0 0,-1.675 2.419,0 0,-0.558 -2.419,0 0,-0.903 c 0,-0.825 0.266,-1.064 1.197,-1.064 0.345,0 0.85,0.027 1.355,0.08 l 0,-0.531 c -0.399,-0.055 -0.798,-0.107 -1.436,-0.107 -1.222,0 -1.701,0.372 -1.701,1.622 l 0,3.694 z"
             style="fill:#171e52;fill-opacity:1;fill-rule:nonzero;stroke:none"
             id="path3406"
             inkscape:connector-curvature="0" />
        </g>
        <g
           id="g3408"
           transform="translate(874.4606,68.322)">
          <path
             d="M 0,0 C 14.797,-1.035 24.662,3.561 33.179,11.717 26.803,0.432 13.186,-3.609 0,0"
             style="fill:#171e52;fill-opacity:1;fill-rule:nonzero;stroke:none"
             id="path3410"
             inkscape:connector-curvature="0" />
        </g>
        <g
           id="g3412"
           transform="translate(842.0024,43.3051)">
          <path
             d="m 0,0 c -5.195,0 -8.764,8.643 -12.186,11.507 l 0,-11.507 -3.035,0 0,15.78 1.238,0 c 4.321,0 8.448,-9.105 12.162,-11.993 l 0,11.993 3.035,0 L 1.214,0 0,0 Z"
             style="fill:#171e52;fill-opacity:1;fill-rule:nonzero;stroke:none"
             id="path3414"
             inkscape:connector-curvature="0" />
        </g>
        <g
           id="g3416"
           transform="translate(857.8511,56.5354)">
          <path
             d="m 0,0 c -3.325,0 -5.073,-2.184 -5.073,-5.34 0,-3.156 1.748,-5.292 5.073,-5.292 3.351,0 5.098,2.136 5.098,5.292 C 5.098,-2.184 3.351,0 0,0 m 0,-13.546 c -5.122,0 -8.302,3.448 -8.302,8.206 0,4.83 3.18,8.204 8.302,8.204 5.147,0 8.303,-3.374 8.303,-8.204 0,-4.758 -3.156,-8.206 -8.303,-8.206"
             style="fill:#171e52;fill-opacity:1;fill-rule:nonzero;stroke:none"
             id="path3418"
             inkscape:connector-curvature="0" />
        </g>
        <g
           id="g3420"
           transform="translate(878.9203,43.1839)">
          <path
             d="m 0,0 -1.457,0 -7.647,15.901 3.497,0 4.879,-10.9 4.879,10.9 3.544,0 L 0,0 Z"
             style="fill:#171e52;fill-opacity:1;fill-rule:nonzero;stroke:none"
             id="path3422"
             inkscape:connector-curvature="0" />
        </g>
        <g
           id="g3424"
           transform="translate(898.5809,56.5354)">
          <path
             d="m 0,0 c -3.325,0 -5.073,-2.184 -5.073,-5.34 0,-3.156 1.748,-5.292 5.073,-5.292 3.35,0 5.098,2.136 5.098,5.292 C 5.098,-2.184 3.35,0 0,0 m 0,-13.546 c -5.122,0 -8.302,3.448 -8.302,8.206 0,4.83 3.18,8.204 8.302,8.204 5.147,0 8.302,-3.374 8.302,-8.204 0,-4.758 -3.155,-8.206 -8.302,-8.206"
             style="fill:#171e52;fill-opacity:1;fill-rule:nonzero;stroke:none"
             id="path3426"
             inkscape:connector-curvature="0" />
        </g>
        <g
           id="g3428"
           transform="translate(919.0435,56.3413)">
          <path
             d="m 0,0 0,-13.035 -3.059,0 0,13.035 -5.68,0 0,2.743 14.419,0 L 5.68,0 0,0 Z"
             style="fill:#171e52;fill-opacity:1;fill-rule:nonzero;stroke:none"
             id="path3430"
             inkscape:connector-curvature="0" />
        </g>
        <g
           id="g3432"
           transform="translate(936.4461,42.9897)">
          <path
             d="m 0,0 c -4.37,0 -6.603,1.506 -6.603,5.68 l 0,10.415 11.482,0 0,-2.865 -8.423,0 0,-3.447 7.792,0 0,-2.864 -7.792,0 0,-1.312 c 0,-2.136 1.165,-2.693 3.665,-2.693 2.234,0 3.447,0.145 4.758,0.363 l 0,-2.816 C 3.568,0.219 2.428,0 0,0"
             style="fill:#171e52;fill-opacity:1;fill-rule:nonzero;stroke:none"
             id="path3434"
             inkscape:connector-curvature="0" />
        </g>
        <g
           id="g3436"
           transform="translate(953.9957,42.9897)">
          <path
             d="m 0,0 c -4.345,0 -6.118,1.675 -6.118,5.826 l 0,10.269 3.059,0 0,-10.317 c 0,-2.161 0.777,-2.864 3.277,-2.864 2.16,0 3.52,0.169 4.831,0.339 l 0,-2.792 C 3.738,0.219 2.428,0 0,0"
             style="fill:#171e52;fill-opacity:1;fill-rule:nonzero;stroke:none"
             id="path3438"
             inkscape:connector-curvature="0" />
        </g>
      </g>
    </g>
  </g>
</svg>
