<svg xmlns="http://www.w3.org/2000/svg" width="301" height="105" viewBox="0 0 301 105" version="1.1"><path d="M 0.568 1.750 C 0.778 2.712, 4.123 25.325, 8.003 52 C 11.882 78.675, 15.277 101.513, 15.547 102.750 C 16.037 104.996, 16.075 105, 36.968 105 L 57.898 105 60.335 101.750 C 64.856 95.722, 79.265 71.932, 78.724 71.390 C 78.428 71.095, 73.153 71.594, 67 72.500 C 60.847 73.406, 55.627 73.960, 55.399 73.732 C 55.171 73.505, 60.726 71.841, 67.742 70.035 C 74.759 68.230, 81.292 66.245, 82.260 65.626 C 83.228 65.007, 93.036 50.100, 104.057 32.500 L 124.094 0.500 108.297 0.214 C 99.609 0.057, 91.588 0.153, 90.474 0.427 C 89.109 0.763, 80.999 12.837, 65.583 37.488 C 53.006 57.597, 42.524 73.857, 42.288 73.622 C 42.053 73.386, 39.653 58.187, 36.956 39.847 C 34.258 21.506, 31.795 5.038, 31.480 3.250 L 30.909 0 15.548 -0 C 1.440 -0, 0.218 0.143, 0.568 1.750 M 153.745 1.250 C 150.854 3.458, 118.799 55.486, 120.192 55.711 C 120.911 55.826, 130.275 53.571, 141 50.698 L 160.500 45.475 174.250 23.554 C 181.813 11.497, 188 1.265, 188 0.816 C 188 -0.585, 155.612 -0.175, 153.745 1.250 M 217.807 1.689 C 215.833 3.906, 195.975 35.308, 196.326 35.659 C 196.464 35.797, 209.384 32.555, 225.038 28.455 C 240.692 24.355, 255.435 21, 257.800 21 C 266.093 21, 270 24.993, 270 33.470 C 270 38.718, 266.636 43.343, 261.717 44.857 C 259.948 45.401, 241.531 48.195, 220.790 51.065 L 183.080 56.283 168.290 79.822 C 160.156 92.768, 153.350 103.730, 153.167 104.180 C 152.983 104.631, 160.711 105, 170.339 105 L 187.844 105 198.410 88.143 L 208.976 71.287 231.738 70.697 C 257.407 70.032, 264.523 68.873, 275.793 63.521 C 284.977 59.160, 292.592 51.604, 297.168 42.313 C 300.314 35.925, 300.500 34.951, 300.500 24.863 C 300.500 14.600, 300.381 14.010, 297.491 9.894 C 295.668 7.299, 292.526 4.602, 289.521 3.055 L 284.560 0.500 251.990 0.189 C 221.590 -0.101, 219.312 -0.001, 217.807 1.689 M 130.048 63.578 C 121 64.892, 113.259 66.087, 112.845 66.234 C 112.432 66.380, 106.707 75.050, 100.124 85.500 L 88.154 104.500 104.790 104.775 C 113.940 104.926, 121.949 104.850, 122.588 104.605 C 123.691 104.181, 150 62.926, 150 61.620 C 150 60.748, 148.547 60.890, 130.048 63.578" stroke="none" fill="#f01c24" fill-rule="evenodd"/></svg>